<svg width="610" height="610" viewBox="0 0 610 610" fill="none" xmlns="http://www.w3.org/2000/svg">
<path d="M303.841 592.981C462.592 592.981 591.285 518.68 591.285 427.024C591.285 335.369 462.592 261.068 303.841 261.068C145.09 261.068 16.3969 335.369 16.3969 427.024C16.3969 518.68 145.09 592.981 303.841 592.981Z" fill="#F0F0F0" fill-opacity="0.1"/>
<path d="M468.919 484.608C450.07 473.726 450.07 456.085 468.919 445.202C487.768 434.32 518.329 434.32 537.178 445.202C556.027 456.085 556.027 473.726 537.178 484.608C518.329 495.491 487.768 495.491 468.919 484.608Z" fill="#E0E0E0" fill-opacity="0.3"/>
<path d="M85.5464 486.121L35.9656 457.5C33.1718 455.89 33.1718 453.267 35.9656 451.656L324.361 285.151C325.929 284.356 327.661 283.943 329.418 283.943C331.175 283.943 332.908 284.356 334.475 285.151L384.068 313.772C386.862 315.382 386.862 318.005 384.068 319.616L95.6724 486.121C94.1029 486.916 92.3685 487.329 90.6094 487.329C88.8503 487.329 87.1159 486.916 85.5464 486.121Z" fill="#E0E0E0" fill-opacity="0.3"/>
<path d="M263.764 435.101L306.391 410.457C310.783 407.919 312.979 404.601 312.979 401.27C312.979 397.94 312.979 395.341 312.979 395.341L268.766 370.404C267.531 369.606 266.502 368.526 265.765 367.254C265.027 365.982 264.6 364.553 264.52 363.084V310.514L190.1 353.532V406.077C190.186 407.544 190.615 408.971 191.352 410.242C192.09 411.513 193.115 412.594 194.346 413.397L231.971 435.064C240.73 440.176 254.98 440.176 263.764 435.101Z" fill="#D17077"/>
<g opacity="0.6">
<path d="M263.764 435.101L306.391 410.457C310.783 407.919 312.979 404.601 312.979 401.27C312.979 397.94 312.979 395.341 312.979 395.341L268.766 370.404C267.531 369.606 266.502 368.526 265.765 367.254C265.027 365.982 264.6 364.553 264.52 363.084V310.514L190.1 353.532V406.077C190.186 407.544 190.615 408.971 191.352 410.242C192.09 411.513 193.115 412.594 194.346 413.397L231.971 435.064C240.73 440.176 254.98 440.176 263.764 435.101Z" fill="black"/>
</g>
<path opacity="0.3" d="M207.949 415.386V421.29L194.309 413.421C193.079 412.619 192.054 411.539 191.319 410.267C190.583 408.995 190.157 407.568 190.076 406.101V353.532L204.252 345.345C204.545 348.944 204.862 352.665 205.167 356.325L195.2 362.059V403.112C195.279 404.581 195.705 406.01 196.443 407.283C197.181 408.555 198.21 409.635 199.446 410.432L207.949 415.386Z" fill="black"/>
<path d="M195.2 403.125C195.284 404.592 195.712 406.02 196.449 407.291C197.187 408.563 198.213 409.643 199.446 410.445L231.922 429.159C240.706 434.222 254.956 434.235 263.752 429.159L306.452 404.515C315.248 399.44 315.248 391.217 306.452 386.142L273.951 367.427C272.722 366.624 271.698 365.543 270.963 364.271C270.227 363 269.801 361.574 269.718 360.107V319.042L195.298 362.059L195.2 403.125Z" fill="#D17077"/>
<path opacity="0.3" d="M195.2 403.125C195.284 404.592 195.712 406.02 196.449 407.291C197.187 408.563 198.213 409.643 199.446 410.445L231.922 429.159C240.706 434.222 254.956 434.235 263.752 429.159L306.452 404.515C315.248 399.44 315.248 391.217 306.452 386.142L273.951 367.427C272.722 366.624 271.698 365.543 270.963 364.271C270.227 363 269.801 361.574 269.718 360.107V319.042L195.298 362.059L195.2 403.125Z" fill="black"/>
<path opacity="0.5" d="M282.552 372.442L273.902 367.452C272.673 366.648 271.649 365.567 270.914 364.296C270.179 363.024 269.752 361.598 269.669 360.132V319.042L195.249 362.059V403.125C195.333 404.592 195.761 406.02 196.498 407.291C197.236 408.563 198.262 409.643 199.494 410.445L208.034 415.325L282.552 372.442Z" fill="black"/>
<path d="M312.991 395.353V401.282C312.991 404.613 310.783 407.919 306.403 410.469L263.703 435.101C259.03 437.595 253.811 438.89 248.514 438.871V432.966C253.811 432.986 259.03 431.69 263.703 429.196L306.403 404.54C310.783 402.014 312.991 398.684 312.991 395.353Z" fill="#D17077"/>
<path opacity="0.5" d="M312.991 395.353V401.282C312.991 404.613 310.783 407.919 306.403 410.469L263.703 435.101C259.03 437.595 253.811 438.89 248.514 438.871V432.966C253.811 432.986 259.03 431.69 263.703 429.196L306.403 404.54C310.783 402.014 312.991 398.684 312.991 395.353Z" fill="black"/>
<path d="M75.64 454.157C77.2488 454.934 79.0177 455.323 80.8041 455.291C82.5905 455.259 84.3444 454.808 85.9246 453.974L373.845 287.749C375.388 286.742 376.673 285.386 377.595 283.79C378.517 282.194 379.051 280.403 379.152 278.563V45.6402C379.096 43.8497 378.619 42.0976 377.758 40.5266C376.898 38.9556 375.678 37.6102 374.198 36.6C372.592 35.8221 370.824 35.4343 369.039 35.4682C367.254 35.5022 365.502 35.9568 363.926 36.7952L76.006 203.069C74.4676 204.082 73.1904 205.445 72.2787 207.046C71.367 208.646 70.8467 210.44 70.76 212.28V445.166C70.8144 446.942 71.2842 448.68 72.1317 450.241C72.9791 451.803 74.1807 453.144 75.64 454.157Z" fill="#D17077"/>
<path d="M85.9613 453.962L373.881 287.737C375.427 286.732 376.714 285.376 377.636 283.78C378.558 282.183 379.09 280.392 379.188 278.55V45.6402C379.188 42.2608 376.809 40.8822 373.881 42.578L85.9613 208.803C84.4168 209.809 83.1313 211.165 82.2092 212.762C81.2871 214.358 80.7544 216.149 80.6543 217.99V450.9C80.6543 454.279 83.0333 455.658 85.9613 453.962Z" fill="#D17077"/>
<path opacity="0.5" d="M85.9613 453.962L373.881 287.737C375.427 286.732 376.714 285.376 377.636 283.78C378.558 282.183 379.09 280.392 379.188 278.55V45.6402C379.188 42.2608 376.809 40.8822 373.881 42.578L85.9613 208.803C84.4168 209.809 83.1313 211.165 82.2092 212.762C81.2871 214.358 80.7544 216.149 80.6543 217.99V450.9C80.6543 454.279 83.0333 455.658 85.9613 453.962Z" fill="black"/>
<path d="M85.1804 460.013C83.6706 460.672 82.0358 460.996 80.3888 460.962C78.7418 460.929 77.1216 460.538 75.64 459.818C74.1774 458.802 72.9739 457.457 72.1263 455.891C71.2786 454.325 70.8107 452.582 70.76 450.802V429.599L80.703 435.357V456.561C80.642 459.647 82.6062 461.05 85.1804 460.013Z" fill="#D17077"/>
<path opacity="0.5" d="M85.1804 460.013C83.6706 460.672 82.0358 460.996 80.3888 460.962C78.7418 460.929 77.1216 460.538 75.64 459.818C74.1774 458.802 72.9739 457.457 72.1263 455.891C71.2786 454.325 70.8107 452.582 70.76 450.802V429.599L80.703 435.357V456.561C80.642 459.647 82.6062 461.05 85.1804 460.013Z" fill="black"/>
<path d="M80.6421 435.357V456.561C80.6421 459.94 83.0821 461.306 85.9491 459.623L373.869 293.398C375.406 292.396 376.688 291.047 377.609 289.46C378.531 287.873 379.067 286.092 379.176 284.26V262.959L80.6421 435.357Z" fill="#D17077"/>
<path opacity="0.3" d="M80.6543 435.308V456.561C80.6543 459.94 83.0943 461.306 85.9613 459.623L373.881 293.398C375.416 292.394 376.695 291.045 377.615 289.458C378.534 287.871 379.069 286.091 379.176 284.26V262.959L80.6543 435.308Z" fill="black"/>
<path d="M90.5972 408.7V221.296C90.654 220.192 90.9709 219.117 91.5221 218.158C92.0734 217.2 92.8433 216.386 93.7692 215.781L366 58.56C367.757 57.5474 369.184 58.3648 369.184 60.39V247.892C369.125 248.997 368.806 250.072 368.253 251.03C367.699 251.989 366.927 252.803 366 253.406L93.7814 410.591C92.0246 411.604 90.5972 410.774 90.5972 408.7Z" fill="#D17077"/>
<path d="M90.5972 408.7V221.296C90.654 220.192 90.9709 219.117 91.5221 218.158C92.0734 217.2 92.8433 216.386 93.7692 215.781L366 58.56C367.757 57.5474 369.184 58.3648 369.184 60.39V247.892C369.125 248.997 368.806 250.072 368.253 251.03C367.699 251.989 366.927 252.803 366 253.406L93.7814 410.591C92.0246 411.604 90.5972 410.774 90.5972 408.7Z" fill="#263238"/>
<path d="M229.909 355.911C228.46 356.853 227.254 358.124 226.389 359.621C225.524 361.118 225.024 362.798 224.931 364.524C224.931 367.696 227.164 368.989 229.909 367.403C231.36 366.459 232.567 365.186 233.432 363.687C234.297 362.188 234.795 360.506 234.887 358.778C234.887 355.606 232.654 354.325 229.909 355.911Z" fill="#D17077"/>
<path opacity="0.7" d="M82.2158 212.744C81.2703 214.333 80.7298 216.13 80.642 217.977V435.357L70.76 429.599V212.28C70.824 210.427 71.3616 208.621 72.3216 207.034L82.2158 212.744Z" fill="black"/>
<path opacity="0.3" d="M379.127 44.7618C378.749 42.029 376.541 41.1018 373.869 42.578L85.9489 208.803C84.3878 209.779 83.0993 211.135 82.2035 212.744L72.2483 206.997C73.1501 205.389 74.4424 204.034 76.0059 203.057L363.926 36.844C365.504 36.0055 367.258 35.5508 369.045 35.5169C370.832 35.483 372.602 35.8708 374.211 36.6488C375.563 37.5704 376.702 38.7716 377.55 40.1712C378.398 41.5709 378.936 43.1364 379.127 44.7618Z" fill="black"/>
<path d="M394.658 73.4318C394.23 73.2172 393.752 73.1231 393.275 73.1596C392.798 73.1962 392.339 73.362 391.949 73.6392L120.28 230.58C119.208 231.289 118.318 232.241 117.682 233.358C117.046 234.475 116.682 235.726 116.62 237.009V423.267C116.582 423.896 116.707 424.524 116.982 425.09C117.258 425.656 117.675 426.142 118.194 426.5C118.791 426.829 121.988 428.684 122.939 429.196C123.276 429.367 123.652 429.447 124.029 429.425C124.407 429.404 124.771 429.283 125.087 429.074L396.695 272.133C397.767 271.424 398.657 270.473 399.293 269.356C399.929 268.239 400.293 266.988 400.355 265.704V78.4826C400.41 78.0095 400.331 77.5306 400.129 77.0995C399.926 76.6685 399.607 76.3025 399.208 76.0426C398.598 75.64 395.341 73.8344 394.658 73.4318Z" fill="#D17077"/>
<path d="M125.025 233.215L396.707 76.3354C398.757 75.1154 400.367 76.1158 400.367 78.4826V265.704C400.305 266.988 399.941 268.239 399.305 269.356C398.669 270.473 397.779 271.424 396.707 272.133L125.025 429.074C122.976 430.294 121.365 428.33 121.365 425.963V239.645C121.43 238.361 121.795 237.111 122.43 235.994C123.066 234.878 123.955 233.926 125.025 233.215Z" fill="#FAFAFA"/>
<path d="M398.366 77.043C399.086 77.043 399.196 77.9458 399.196 78.4826V265.704C399.13 266.779 398.815 267.824 398.275 268.755C397.735 269.687 396.985 270.48 396.085 271.072L124.44 428.013C124.258 428.131 124.047 428.198 123.83 428.208C123.147 428.208 122.61 427.159 122.61 425.963V239.645C122.669 238.57 122.975 237.523 123.504 236.586C124.032 235.649 124.77 234.846 125.66 234.24L397.317 77.3846C397.632 77.1818 397.993 77.0641 398.366 77.043ZM398.366 75.823C397.779 75.848 397.207 76.0245 396.707 76.3354L125.025 233.215C123.955 233.926 123.066 234.878 122.43 235.994C121.795 237.111 121.43 238.361 121.365 239.645V425.963C121.365 427.842 122.415 429.428 123.805 429.428C124.236 429.42 124.657 429.298 125.025 429.074L396.695 272.133C397.767 271.424 398.657 270.473 399.293 269.356C399.929 268.239 400.293 266.988 400.355 265.704V78.4826C400.355 76.799 399.525 75.823 398.305 75.823H398.366Z" fill="#E0E0E0"/>
<path d="M118.12 426.5C118.523 426.707 121.414 428.354 122.683 429.086C122.227 428.708 121.867 428.229 121.629 427.687C121.392 427.144 121.285 426.554 121.317 425.963V251.808L116.559 249.026V423.267C116.519 423.894 116.642 424.522 116.916 425.088C117.189 425.654 117.604 426.14 118.12 426.5Z" fill="#F0F0F0"/>
<path d="M400.416 78.446C400.416 76.1036 398.745 75.152 396.756 76.3354L125.025 233.215C123.955 233.926 123.066 234.878 122.43 235.994C121.795 237.111 121.43 238.361 121.365 239.645V251.845L400.416 90.646V78.446Z" fill="#D17077"/>
<g opacity="0.4">
<path d="M396.707 76.3354L125.026 233.203C123.935 233.891 123.037 234.843 122.415 235.972L117.693 233.227C118.314 232.138 119.205 231.226 120.28 230.58L391.949 73.6392C392.338 73.36 392.796 73.1921 393.273 73.1534C393.75 73.1147 394.229 73.2067 394.658 73.4196C395.317 73.8344 398.403 75.579 399.196 76.006C398.786 75.8539 398.345 75.8044 397.911 75.8618C397.477 75.9192 397.064 76.0818 396.707 76.3354Z" fill="white"/>
</g>
<path opacity="0.15" d="M116.559 249.039V236.948C116.609 235.631 117 234.349 117.693 233.227L122.427 235.96C121.743 237.062 121.36 238.324 121.317 239.62V251.82L116.559 249.039Z" fill="black"/>
<path d="M343.125 218.892L180.413 312.832C179.622 313.346 178.963 314.039 178.491 314.855C178.018 315.671 177.745 316.588 177.693 317.529V364.182C177.745 365.124 178.018 366.04 178.491 366.857C178.963 367.673 179.622 368.366 180.413 368.879L185.159 371.612C186.003 372.039 186.935 372.261 187.88 372.261C188.825 372.261 189.757 372.039 190.6 371.612L353.287 277.672C354.079 277.156 354.738 276.461 355.21 275.642C355.683 274.824 355.956 273.906 356.008 272.963V226.298C355.956 225.356 355.683 224.44 355.21 223.623C354.738 222.807 354.079 222.114 353.287 221.601L348.529 218.868C347.69 218.448 346.763 218.232 345.824 218.236C344.885 218.24 343.961 218.465 343.125 218.892Z" fill="#D17077"/>
<path opacity="0.5" d="M356.008 225.883C355.813 224.48 354.678 223.968 353.312 224.761L190.6 318.701C189.798 319.199 189.138 319.897 188.685 320.726L178.498 314.845C178.955 314.029 179.609 313.341 180.401 312.845L343.125 218.905C343.966 218.477 344.896 218.254 345.839 218.254C346.783 218.254 347.713 218.477 348.554 218.905L353.312 221.637C354.037 222.113 354.653 222.737 355.118 223.469C355.583 224.202 355.886 225.024 356.008 225.883Z" fill="white"/>
<path d="M190.137 371.844C189.34 372.158 188.486 372.3 187.631 372.263C186.775 372.225 185.937 372.007 185.171 371.624L180.413 368.891C179.624 368.377 178.966 367.683 178.493 366.867C178.021 366.051 177.746 365.136 177.693 364.194V317.542C177.73 316.589 178.007 315.662 178.498 314.845L188.685 320.726C188.19 321.532 187.913 322.452 187.88 323.398V370.063C187.88 371.612 188.856 372.332 190.137 371.844Z" fill="#263238"/>
<path d="M190.6 318.701L353.312 224.761C354.812 223.894 356.032 224.59 356.032 226.322V272.987C355.981 273.931 355.708 274.849 355.235 275.667C354.762 276.485 354.103 277.18 353.312 277.696L190.625 371.636C189.124 372.503 187.904 371.795 187.904 370.063V323.41C187.953 322.468 188.223 321.552 188.691 320.734C189.159 319.916 189.814 319.219 190.6 318.701Z" fill="#D17077"/>
<path d="M299.986 243.805L180.426 312.845C179.634 313.341 178.979 314.029 178.522 314.845L188.709 320.726C189.163 319.897 189.822 319.199 190.625 318.701L310.185 249.673L299.986 243.805Z" fill="#455A64"/>
<path d="M310.16 249.673L190.6 318.701C189.809 319.217 189.15 319.912 188.678 320.73C188.205 321.548 187.932 322.466 187.88 323.41V370.05C187.88 371.783 189.1 372.49 190.6 371.624L310.16 302.597V249.673Z" fill="#37474F"/>
<path d="M218.173 313.015L279.868 277.404C282.418 275.927 284.492 276.977 284.492 279.746C284.378 281.301 283.899 282.808 283.093 284.143C282.287 285.479 281.178 286.606 279.856 287.432L218.173 323.056C215.623 324.532 213.537 323.483 213.537 320.714C213.652 319.157 214.131 317.649 214.937 316.312C215.742 314.974 216.85 313.845 218.173 313.015Z" fill="#D17077"/>
<path d="M230.812 324.813C230.823 324.8 230.837 324.789 230.853 324.782C230.869 324.775 230.886 324.771 230.903 324.771C230.921 324.771 230.938 324.775 230.953 324.782C230.969 324.789 230.983 324.8 230.995 324.813C231.049 324.896 231.075 324.994 231.068 325.093V332.035C231.069 332.706 231.012 333.375 230.897 334.036C230.796 334.64 230.624 335.229 230.385 335.793C230.166 336.309 229.879 336.793 229.531 337.232C229.188 337.64 228.774 337.983 228.311 338.245C227.948 338.482 227.524 338.609 227.091 338.611C226.925 338.598 226.764 338.551 226.617 338.473C226.47 338.396 226.341 338.289 226.237 338.16C225.969 337.801 225.793 337.382 225.724 336.94C225.608 336.349 225.554 335.748 225.566 335.146V328.192C225.565 328.07 225.59 327.95 225.639 327.838C225.669 327.738 225.734 327.651 225.822 327.594L226.59 327.143C226.615 327.12 226.648 327.107 226.682 327.107C226.716 327.107 226.749 327.12 226.774 327.143C226.83 327.225 226.856 327.324 226.847 327.424V334.28C226.837 334.657 226.874 335.034 226.956 335.402C226.99 335.638 227.092 335.858 227.249 336.037C227.304 336.102 227.374 336.154 227.452 336.188C227.53 336.222 227.615 336.237 227.701 336.232C227.909 336.218 228.111 336.151 228.286 336.037C228.503 335.907 228.701 335.747 228.872 335.561C229.062 335.342 229.219 335.095 229.335 334.829C229.473 334.516 229.575 334.189 229.64 333.853C229.712 333.45 229.744 333.042 229.738 332.633V325.764C229.742 325.642 229.771 325.521 229.824 325.411C229.853 325.31 229.918 325.223 230.006 325.167L230.812 324.813Z" fill="#FAFAFA"/>
<path d="M235.594 331.376C235.6 331.287 235.579 331.197 235.533 331.12C235.504 331.088 235.468 331.064 235.428 331.049C235.387 331.034 235.344 331.029 235.301 331.035C235.152 331.014 235 331.014 234.85 331.035L234.142 331.169C233.914 331.226 233.675 331.226 233.447 331.169C233.268 331.111 233.113 330.995 233.008 330.84C232.888 330.642 232.81 330.422 232.776 330.193C232.657 329.54 232.657 328.87 232.776 328.217C232.867 327.842 232.998 327.478 233.166 327.131C233.333 326.784 233.538 326.457 233.776 326.155C234.007 325.867 234.288 325.623 234.606 325.435C234.863 325.279 235.15 325.179 235.448 325.142C235.664 325.12 235.882 325.167 236.07 325.276C236.249 325.386 236.39 325.547 236.473 325.74C236.571 325.968 236.625 326.212 236.631 326.46C236.644 326.582 236.618 326.706 236.558 326.814C236.528 326.914 236.463 327.001 236.375 327.058L235.643 327.485C235.61 327.504 235.572 327.514 235.533 327.514C235.495 327.514 235.457 327.504 235.423 327.485L235.265 327.363C235.202 327.313 235.125 327.283 235.045 327.277C234.888 327.295 234.738 327.349 234.606 327.436C234.414 327.551 234.245 327.7 234.106 327.875C233.958 328.067 233.881 328.304 233.886 328.546C233.869 328.639 233.869 328.734 233.886 328.827C233.91 328.861 233.94 328.89 233.976 328.911C234.012 328.932 234.052 328.945 234.094 328.949C234.227 328.971 234.363 328.971 234.496 328.949L235.179 328.827C235.753 328.717 236.143 328.827 236.399 329.144C236.669 329.596 236.792 330.12 236.753 330.644C236.75 331.007 236.701 331.368 236.607 331.718C236.51 332.098 236.371 332.467 236.192 332.816C236.013 333.177 235.787 333.514 235.521 333.816C235.268 334.113 234.967 334.365 234.63 334.561C234.362 334.732 234.057 334.837 233.74 334.866C233.51 334.874 233.284 334.81 233.093 334.683C232.905 334.554 232.76 334.371 232.678 334.158C232.58 333.927 232.53 333.677 232.532 333.426C232.521 333.299 232.546 333.172 232.605 333.06C232.635 332.959 232.7 332.873 232.788 332.816L233.52 332.389C233.618 332.389 233.691 332.328 233.74 332.389L233.898 332.56C233.931 332.596 233.97 332.626 234.014 332.647C234.058 332.668 234.106 332.68 234.155 332.682C234.326 332.683 234.494 332.627 234.63 332.523C234.851 332.398 235.049 332.237 235.216 332.047C235.299 331.947 235.369 331.836 235.423 331.718C235.51 331.621 235.568 331.503 235.594 331.376Z" fill="#FAFAFA"/>
<path d="M238.083 328.07C238.081 327.436 238.134 326.804 238.242 326.179C238.343 325.592 238.503 325.015 238.717 324.459C238.897 323.96 239.143 323.488 239.449 323.056C239.705 322.684 240.038 322.372 240.425 322.141C240.708 321.951 241.053 321.877 241.389 321.934C241.687 322.003 241.948 322.181 242.121 322.434C242.351 322.765 242.512 323.138 242.597 323.532C242.714 324.044 242.771 324.568 242.768 325.093V325.85C242.772 325.977 242.742 326.103 242.682 326.216C242.652 326.316 242.588 326.403 242.499 326.46L239.327 328.302C239.32 328.517 239.349 328.731 239.413 328.936C239.46 329.075 239.544 329.197 239.657 329.29C239.757 329.37 239.883 329.409 240.011 329.4C240.158 329.383 240.3 329.333 240.425 329.254C240.61 329.153 240.775 329.021 240.913 328.863C241.038 328.723 241.145 328.567 241.231 328.4C241.283 328.303 241.34 328.21 241.401 328.119C241.454 328.057 241.515 328.003 241.584 327.96L242.341 327.521C242.367 327.5 242.399 327.489 242.432 327.489C242.465 327.489 242.498 327.5 242.524 327.521C242.556 327.56 242.579 327.605 242.592 327.653C242.604 327.702 242.606 327.753 242.597 327.802C242.584 328.04 242.534 328.274 242.451 328.497C242.345 328.836 242.206 329.163 242.036 329.473C241.845 329.83 241.616 330.166 241.353 330.474C241.09 330.788 240.777 331.056 240.425 331.267C240.137 331.455 239.792 331.537 239.449 331.498C239.149 331.426 238.888 331.243 238.717 330.986C238.477 330.616 238.315 330.201 238.242 329.766C238.131 329.208 238.077 328.639 238.083 328.07ZM240.425 324.178C240.238 324.279 240.075 324.421 239.949 324.593C239.814 324.764 239.703 324.953 239.62 325.154C239.535 325.356 239.465 325.564 239.413 325.777C239.37 325.969 239.341 326.165 239.327 326.362L241.474 325.142C241.462 324.974 241.438 324.807 241.401 324.642C241.383 324.495 241.323 324.355 241.231 324.239C241.194 324.187 241.147 324.142 241.092 324.109C241.038 324.075 240.977 324.053 240.913 324.044C240.74 324.029 240.567 324.077 240.425 324.178Z" fill="#FAFAFA"/>
<path d="M246.598 320.775C246.229 320.986 245.938 321.311 245.769 321.702C245.579 322.217 245.492 322.764 245.513 323.312V327.716C245.514 327.842 245.489 327.967 245.439 328.082C245.41 328.183 245.345 328.27 245.256 328.326L244.537 328.741C244.525 328.754 244.511 328.765 244.495 328.772C244.48 328.779 244.462 328.783 244.445 328.783C244.428 328.783 244.411 328.779 244.395 328.772C244.379 328.765 244.365 328.754 244.354 328.741C244.299 328.658 244.273 328.56 244.28 328.461V320.567C244.281 320.442 244.306 320.317 244.354 320.201C244.388 320.103 244.452 320.018 244.537 319.957L245.256 319.542C245.281 319.519 245.314 319.506 245.348 319.506C245.382 319.506 245.415 319.519 245.439 319.542C245.496 319.62 245.522 319.715 245.513 319.811V320.201C245.658 319.874 245.838 319.563 246.049 319.274C246.242 319.007 246.492 318.786 246.781 318.627L247.221 318.371C247.243 318.349 247.274 318.336 247.306 318.336C247.338 318.336 247.369 318.349 247.391 318.371C247.45 318.453 247.48 318.551 247.477 318.652V319.762C247.475 319.889 247.446 320.013 247.391 320.128C247.361 320.225 247.301 320.31 247.221 320.372L246.598 320.775Z" fill="#FAFAFA"/>
<path d="M255.7 320.189C255.711 320.176 255.725 320.166 255.741 320.158C255.757 320.151 255.774 320.148 255.791 320.148C255.809 320.148 255.826 320.151 255.841 320.158C255.857 320.166 255.871 320.176 255.883 320.189C255.937 320.272 255.963 320.371 255.956 320.47V321.69C255.955 321.815 255.931 321.939 255.883 322.056C255.841 322.146 255.778 322.226 255.7 322.287L251.527 324.727C251.503 324.751 251.47 324.763 251.436 324.763C251.402 324.763 251.369 324.751 251.344 324.727C251.29 324.649 251.264 324.554 251.271 324.459V313.479C251.272 313.353 251.297 313.229 251.344 313.113C251.379 313.018 251.443 312.936 251.527 312.881L252.296 312.43C252.321 312.407 252.354 312.394 252.388 312.394C252.421 312.394 252.454 312.407 252.479 312.43C252.534 312.508 252.559 312.603 252.552 312.698V321.982L255.7 320.189Z" fill="#FAFAFA"/>
<path d="M259.445 311.161C259.72 310.971 260.051 310.881 260.385 310.905C260.67 310.927 260.937 311.058 261.129 311.271C261.356 311.532 261.523 311.84 261.617 312.174C261.747 312.606 261.821 313.053 261.836 313.503C261.836 313.601 261.836 313.735 261.836 313.894V314.833C261.836 314.98 261.836 315.114 261.836 315.224C261.812 315.754 261.739 316.281 261.617 316.797C261.504 317.301 261.34 317.791 261.129 318.261C260.935 318.699 260.685 319.109 260.385 319.481C260.127 319.819 259.809 320.104 259.445 320.323C259.163 320.507 258.83 320.596 258.494 320.579C258.212 320.555 257.95 320.424 257.762 320.213C257.528 319.962 257.36 319.656 257.274 319.323C257.143 318.891 257.069 318.444 257.054 317.993C257.054 317.895 257.054 317.773 257.054 317.615V316.675C257.054 316.517 257.054 316.383 257.054 316.285C257.068 315.751 257.138 315.219 257.261 314.699C257.38 314.192 257.548 313.698 257.762 313.223C257.955 312.788 258.201 312.378 258.494 312.003C258.752 311.662 259.076 311.376 259.445 311.161ZM260.592 314.309C260.591 314.039 260.546 313.771 260.458 313.516C260.412 313.36 260.318 313.223 260.189 313.125C260.085 313.055 259.96 313.025 259.836 313.04C259.696 313.066 259.563 313.12 259.445 313.198C259.302 313.277 259.17 313.376 259.055 313.491C258.915 313.637 258.796 313.801 258.701 313.979C258.578 314.201 258.488 314.439 258.433 314.687C258.353 314.998 258.303 315.317 258.286 315.638C258.286 315.736 258.286 315.846 258.286 315.98V316.846C258.286 316.98 258.286 317.09 258.286 317.163C258.298 317.433 258.347 317.7 258.433 317.956C258.477 318.112 258.571 318.249 258.701 318.347C258.752 318.383 258.809 318.408 258.87 318.42C258.931 318.433 258.994 318.433 259.055 318.42C259.193 318.397 259.326 318.347 259.445 318.274C259.587 318.192 259.718 318.094 259.836 317.981C259.972 317.832 260.09 317.668 260.189 317.493C260.307 317.268 260.397 317.031 260.458 316.785C260.537 316.474 260.582 316.155 260.592 315.834C260.599 315.72 260.599 315.606 260.592 315.492V314.638C260.599 314.528 260.599 314.418 260.592 314.309Z" fill="#FAFAFA"/>
<path d="M265.569 318.298C265.725 318.203 265.866 318.083 265.984 317.944C266.131 317.772 266.258 317.584 266.362 317.383C266.484 317.138 266.578 316.88 266.643 316.614C266.718 316.315 266.755 316.008 266.753 315.699V315.077C266.753 315.199 266.631 315.346 266.545 315.516C266.462 315.695 266.364 315.866 266.253 316.029C266.125 316.2 265.987 316.363 265.838 316.517C265.685 316.677 265.508 316.813 265.313 316.919C265.188 317.005 265.047 317.064 264.898 317.094C264.749 317.123 264.595 317.122 264.447 317.09C264.176 317.005 263.943 316.828 263.788 316.59C263.589 316.275 263.445 315.928 263.361 315.565C263.257 315.104 263.2 314.634 263.19 314.162C263.19 314.004 263.19 313.808 263.19 313.577C263.19 313.345 263.19 313.15 263.19 312.979C263.206 312.442 263.263 311.908 263.361 311.381C263.461 310.861 263.604 310.351 263.788 309.856C263.961 309.425 264.182 309.016 264.447 308.636C264.672 308.299 264.968 308.016 265.313 307.806C265.475 307.708 265.653 307.638 265.838 307.599C265.975 307.573 266.116 307.573 266.253 307.599C266.361 307.629 266.461 307.683 266.545 307.757C266.623 307.817 266.693 307.887 266.753 307.965V307.574C266.753 307.449 266.778 307.324 266.826 307.208C266.86 307.113 266.924 307.032 267.009 306.976L267.729 306.549C267.754 306.526 267.786 306.513 267.82 306.513C267.854 306.513 267.887 306.526 267.912 306.549C267.971 306.631 268.001 306.73 267.997 306.83V314.76C268.03 315.948 267.81 317.129 267.351 318.225C266.99 319.087 266.367 319.813 265.569 320.299C265.297 320.468 264.987 320.564 264.667 320.579C264.414 320.595 264.162 320.531 263.947 320.396C263.741 320.242 263.573 320.041 263.459 319.811C263.34 319.533 263.274 319.235 263.264 318.932C263.252 318.806 263.278 318.679 263.337 318.566C263.367 318.466 263.432 318.379 263.52 318.322L264.166 317.956C264.181 317.941 264.199 317.928 264.219 317.919C264.239 317.911 264.261 317.906 264.282 317.906C264.304 317.906 264.326 317.911 264.346 317.919C264.365 317.928 264.383 317.941 264.398 317.956C264.458 318.02 264.512 318.089 264.557 318.164C264.631 318.295 264.754 318.391 264.898 318.432C265.045 318.542 265.264 318.42 265.569 318.298ZM264.423 312.381C264.423 312.706 264.423 313.024 264.423 313.333C264.388 313.82 264.526 314.304 264.813 314.699C264.922 314.793 265.06 314.844 265.203 314.844C265.347 314.844 265.485 314.793 265.594 314.699C265.948 314.469 266.224 314.137 266.387 313.747C266.609 313.238 266.733 312.692 266.753 312.137C266.753 311.954 266.753 311.734 266.753 311.478C266.753 311.222 266.753 311.002 266.753 310.844C266.778 310.407 266.648 309.975 266.387 309.624C266.279 309.524 266.137 309.469 265.99 309.469C265.843 309.469 265.702 309.524 265.594 309.624C265.247 309.853 264.975 310.18 264.813 310.563C264.562 311.137 264.43 311.755 264.423 312.381Z" fill="#FAFAFA"/>
<path d="M270.84 301.547C270.864 301.528 270.894 301.517 270.925 301.517C270.956 301.517 270.987 301.528 271.011 301.547C271.074 301.626 271.105 301.727 271.096 301.828V303.158C271.097 303.285 271.068 303.41 271.011 303.524C270.976 303.615 270.917 303.696 270.84 303.756L270.022 304.231C270.011 304.244 269.997 304.255 269.981 304.262C269.965 304.269 269.948 304.273 269.931 304.273C269.914 304.273 269.896 304.269 269.881 304.262C269.865 304.255 269.851 304.244 269.839 304.231C269.808 304.195 269.784 304.152 269.769 304.106C269.754 304.06 269.749 304.011 269.754 303.963V302.633C269.753 302.506 269.782 302.381 269.839 302.267C269.874 302.172 269.938 302.091 270.022 302.035L270.84 301.547ZM271.047 313.003C271.048 313.125 271.023 313.245 270.974 313.357C270.935 313.453 270.872 313.537 270.791 313.601L270.059 314.016C270.049 314.029 270.036 314.039 270.021 314.046C270.006 314.053 269.99 314.057 269.974 314.057C269.957 314.057 269.941 314.053 269.926 314.046C269.912 314.039 269.899 314.029 269.888 314.016C269.824 313.937 269.794 313.836 269.803 313.735V305.842C269.802 305.715 269.831 305.589 269.888 305.476C269.923 305.381 269.982 305.297 270.059 305.232L270.791 304.817C270.816 304.794 270.849 304.781 270.883 304.781C270.916 304.781 270.949 304.794 270.974 304.817C271.029 304.895 271.054 304.99 271.047 305.085V313.003Z" fill="#FAFAFA"/>
<path d="M277.465 309.282C277.464 309.408 277.439 309.532 277.391 309.648C277.357 309.743 277.293 309.825 277.208 309.88L276.476 310.307C276.454 310.329 276.423 310.342 276.391 310.342C276.359 310.342 276.328 310.329 276.306 310.307C276.242 310.228 276.211 310.127 276.22 310.026V305.732C276.258 305.225 276.165 304.717 275.952 304.256C275.781 303.951 275.513 303.902 275.134 304.122C274.757 304.375 274.477 304.749 274.341 305.183C274.138 305.759 274.039 306.366 274.049 306.976V311.283C274.048 311.409 274.023 311.533 273.975 311.649C273.945 311.75 273.881 311.836 273.792 311.893L273.073 312.308C273.061 312.321 273.047 312.331 273.031 312.338C273.015 312.345 272.998 312.349 272.981 312.349C272.964 312.349 272.947 312.345 272.931 312.338C272.915 312.331 272.901 312.321 272.89 312.308C272.833 312.23 272.807 312.135 272.816 312.039V304.146C272.815 304.02 272.84 303.895 272.89 303.78C272.919 303.679 272.984 303.593 273.073 303.536L273.792 303.121C273.804 303.108 273.818 303.098 273.834 303.091C273.849 303.084 273.867 303.08 273.884 303.08C273.901 303.08 273.918 303.084 273.934 303.091C273.95 303.098 273.964 303.108 273.975 303.121C274.03 303.204 274.056 303.303 274.049 303.402V303.78C274.209 303.408 274.405 303.053 274.634 302.719C274.835 302.411 275.107 302.155 275.427 301.974C275.705 301.772 276.05 301.684 276.391 301.73C276.526 301.764 276.652 301.826 276.762 301.913C276.871 301.999 276.961 302.107 277.025 302.231C277.202 302.561 277.318 302.92 277.367 303.292C277.432 303.777 277.465 304.266 277.465 304.756V309.282Z" fill="#FAFAFA"/>
<path d="M339.001 273.768L327.155 280.6L328.997 263.984C327.57 263.227 326.667 261.385 326.667 258.738C326.667 254.016 329.546 248.538 333.084 246.538C336.622 244.537 339.489 246.66 339.489 251.418C339.416 254.217 338.617 256.949 337.171 259.348L339.001 273.768Z" fill="#455A64"/>
<path d="M339.013 273.768L328.582 267.753L327.155 280.612L339.013 273.768Z" fill="#37474F"/>
<path d="M333.06 246.501C330.48 248.244 328.556 250.799 327.594 253.76L337.147 259.274C338.593 256.876 339.392 254.144 339.465 251.344C339.489 246.623 336.622 244.464 333.06 246.501Z" fill="#37474F"/>
<path d="M275.476 191.174C271.413 188.832 265.814 189.161 259.616 192.736C247.245 199.885 237.217 217.245 237.217 231.532C237.217 238.705 239.754 243.732 243.829 246.05L251.723 250.637C255.773 252.979 261.373 252.638 267.583 249.063C279.953 241.926 289.982 224.553 289.982 210.267C289.982 203.13 287.469 198.067 283.418 195.786" fill="#D17077"/>
<path d="M267.57 197.335C255.2 204.484 245.171 221.857 245.171 236.131C245.171 250.405 255.2 256.212 267.57 249.063C279.941 241.914 289.982 224.553 289.97 210.267C289.957 195.981 279.929 190.198 267.57 197.335Z" fill="#D17077"/>
<path d="M279.929 229.031V230.665C276.965 235.955 272.715 240.412 267.57 243.622C262.751 246.391 258.396 246.696 255.199 244.927V241.56C255.363 238.057 256.363 234.644 258.117 231.606C259.87 228.569 262.325 225.996 265.277 224.102L268.534 222.223C271.413 220.564 274.219 220.344 276.415 221.625C278.611 222.906 279.929 225.602 279.929 229.031Z" fill="#D17077"/>
<path opacity="0.4" d="M275.476 191.174L283.406 195.786C279.356 193.431 273.756 193.76 267.546 197.335C259.445 202.02 252.345 211.084 248.416 220.796L240.474 216.196C244.415 206.436 251.454 197.42 259.604 192.736C265.826 189.173 271.426 188.832 275.476 191.174Z" fill="white"/>
<path opacity="0.2" d="M251.442 250.454L243.841 246.05C239.767 243.732 237.229 238.73 237.229 231.532L245.171 236.143C245.22 243.097 247.562 248.05 251.442 250.454Z" fill="black"/>
<path opacity="0.1" d="M240.499 216.196L248.441 220.796C246.406 225.657 245.313 230.861 245.22 236.131L237.278 231.519C237.376 226.254 238.469 221.055 240.499 216.196Z" fill="black"/>
<path d="M264.74 221.454C263.983 221.463 263.238 221.269 262.58 220.893C261.788 220.365 261.154 219.633 260.744 218.774C260.333 217.915 260.163 216.961 260.25 216.013C260.354 213.79 260.988 211.625 262.1 209.697C263.213 207.77 264.77 206.137 266.643 204.936C267.395 204.335 268.311 203.975 269.271 203.904C270.231 203.832 271.19 204.052 272.023 204.535C272.856 205.017 273.524 205.74 273.94 206.608C274.356 207.476 274.5 208.449 274.353 209.401C274.248 211.623 273.613 213.788 272.501 215.715C271.389 217.642 269.832 219.275 267.961 220.478C266.992 221.083 265.881 221.42 264.74 221.454Z" fill="white"/>
<path d="M276.415 221.613C274.219 220.332 271.413 220.552 268.534 222.211L265.277 224.09C262.323 225.985 259.867 228.56 258.114 231.599C256.361 234.639 255.361 238.055 255.199 241.56V244.939C258.396 246.708 262.751 246.403 267.57 243.634C272.715 240.424 276.965 235.968 279.929 230.678V229.043C279.929 225.602 278.66 222.906 276.415 221.613Z" fill="white"/>
<path d="M527.223 432.673C527.223 432.673 528.846 418.423 535.934 407.358C543.022 396.293 552.758 389.4 561.847 388.68C570.936 387.96 578.28 396.329 568.557 402.1C558.833 407.87 541.558 413.702 533.604 435.174L527.223 432.673Z" fill="#D17077"/>
<path opacity="0.1" d="M527.223 432.673C527.223 432.673 528.846 418.423 535.934 407.358C543.022 396.293 552.758 389.4 561.847 388.68C570.936 387.96 578.28 396.329 568.557 402.1C558.833 407.87 541.558 413.702 533.604 435.174L527.223 432.673Z" fill="black"/>
<path d="M529.895 428.964H529.797C529.678 428.915 529.582 428.821 529.532 428.702C529.482 428.584 529.481 428.45 529.529 428.33C539.118 404.723 557.369 394.853 565.69 392.95C565.752 392.935 565.817 392.933 565.88 392.944C565.943 392.955 566.004 392.978 566.058 393.011C566.113 393.045 566.16 393.09 566.197 393.142C566.234 393.194 566.261 393.253 566.275 393.316C566.29 393.378 566.292 393.443 566.281 393.506C566.27 393.569 566.247 393.63 566.213 393.684C566.179 393.739 566.135 393.786 566.083 393.823C566.031 393.86 565.972 393.887 565.909 393.901C557.76 395.78 539.862 405.467 530.432 428.708C530.385 428.805 530.306 428.884 530.208 428.93C530.111 428.977 530 428.989 529.895 428.964Z" fill="white"/>
<path d="M578.427 429.245C577.609 431.099 575.584 432.075 573.705 432.832C571.826 433.588 569.777 434.405 568.752 436.162C566.702 439.7 570.07 444.702 567.874 448.13C567.357 448.821 566.705 449.399 565.959 449.831C565.213 450.263 564.386 450.539 563.53 450.644C562.127 450.9 560.7 450.9 559.285 451.022C558.607 451.013 557.931 450.96 557.26 450.863C555.288 450.423 553.227 450.642 551.391 451.485C548.573 453.071 547.731 456.622 545.999 459.367C544.941 460.983 543.546 462.351 541.91 463.379C540.274 464.406 538.435 465.069 536.52 465.32C535.3 465.479 532.86 465.711 531.64 464.991C531.544 464.944 531.454 464.887 531.371 464.82C531.188 464.625 530.969 464.369 530.871 464.234C530.865 464.206 530.865 464.177 530.871 464.149C530.371 462.307 531.188 460.404 531.225 458.5V458.159C531.139 455.951 531.078 453.755 531.03 451.559C530.924 447.492 530.883 443.425 530.908 439.359C530.908 436.723 530.615 433.844 531.737 431.368C532.957 428.635 536.032 428.574 537.191 425.902C537.654 424.828 537.898 423.694 538.35 422.608C539.047 421.029 540.165 419.672 541.58 418.685C542.996 417.698 544.655 417.118 546.377 417.008C551.733 416.74 556.528 421.071 561.883 420.668C563.262 420.558 564.616 420.131 565.983 419.887C570.314 419.07 575.328 420.302 577.768 423.974C578.303 424.731 578.644 425.607 578.759 426.527C578.874 427.446 578.759 428.38 578.427 429.245Z" fill="#D17077"/>
<path d="M530.334 455.694C530.219 455.66 530.121 455.583 530.062 455.478C530.003 455.373 529.987 455.25 530.017 455.133C537.41 427.39 566.617 423.413 573.485 423.877C573.546 423.88 573.605 423.895 573.659 423.921C573.714 423.948 573.762 423.985 573.802 424.03C573.842 424.076 573.872 424.129 573.891 424.186C573.91 424.244 573.917 424.304 573.912 424.365C573.9 424.483 573.842 424.593 573.752 424.67C573.661 424.747 573.544 424.786 573.424 424.78C566.727 424.304 538.13 428.22 530.895 455.377C530.861 455.493 530.784 455.59 530.679 455.649C530.574 455.708 530.45 455.725 530.334 455.694Z" fill="white"/>
<path d="M562.823 441.64C562.73 441.627 562.645 441.584 562.579 441.518C559.878 439.178 556.695 437.463 553.255 436.495C549.816 435.527 546.205 435.33 542.681 435.918C542.562 435.929 542.443 435.895 542.348 435.823C542.253 435.751 542.189 435.645 542.168 435.528C542.15 435.408 542.18 435.287 542.251 435.189C542.321 435.091 542.427 435.024 542.546 435.003C546.222 434.391 549.988 434.6 553.573 435.615C557.159 436.629 560.476 438.424 563.286 440.871C563.329 440.913 563.364 440.964 563.387 441.019C563.411 441.075 563.423 441.134 563.423 441.195C563.423 441.255 563.411 441.315 563.387 441.37C563.364 441.426 563.329 441.476 563.286 441.518C563.231 441.584 563.157 441.631 563.074 441.653C562.991 441.675 562.903 441.67 562.823 441.64Z" fill="white"/>
<path d="M460.086 97.6L463.966 99.0884V90.5484C463.966 83.7652 469.371 82.1426 475.239 85.5342C481.119 88.9258 485.877 97.1608 485.877 103.944V105.164C486.695 104.914 487.559 104.852 488.404 104.983C489.249 105.114 490.053 105.435 490.757 105.92C492.986 107.373 494.84 109.332 496.169 111.636C497.498 113.94 498.265 116.525 498.407 119.182V119.743L503.823 122.866C505.289 123.823 506.509 125.111 507.384 126.626C508.259 128.142 508.766 129.842 508.862 131.589C508.862 134.81 506.605 136.115 503.823 134.505L460.086 109.239C458.62 108.284 457.4 106.997 456.526 105.481C455.653 103.964 455.15 102.263 455.06 100.516C455.06 97.3072 457.293 96.0018 460.086 97.6Z" fill="#E6E6E6"/>
<path d="M512.046 90.8412L519.086 94.9038C519.047 94.5962 519.027 94.2866 519.025 93.9766V91.9392C519.025 88.2792 521.562 86.8396 524.71 88.6574C526.062 89.4855 527.219 90.5968 528.101 91.9148C528.614 87.352 532.201 85.6562 536.544 88.1572C539.026 89.7722 541.092 91.9491 542.576 94.5117C544.06 97.0743 544.919 99.9505 545.084 102.907V105.957C545.115 107.176 544.869 108.386 544.364 109.495L550.22 112.862C551.133 113.467 551.891 114.278 552.433 115.23C552.976 116.181 553.287 117.246 553.343 118.34C553.343 120.353 551.928 121.17 550.183 120.17L512.046 98.21C511.124 97.609 510.357 96.7983 509.808 95.8442C509.258 94.89 508.943 93.8195 508.886 92.72C508.886 90.6582 510.302 89.8408 512.046 90.8412Z" fill="#E6E6E6"/>
<path d="M484.791 276.001C479.667 284.663 474.739 292.19 471.274 295.801C464.698 298.851 449.253 303.56 443.214 304.341C442.153 304.476 441.079 304.225 440.188 303.634C437.809 302.072 435.967 301.816 433.466 300.95C431.502 300.279 430.672 299.339 430.306 299.73C429.928 300.173 429.738 300.746 429.777 301.327C429.816 301.909 430.08 302.452 430.514 302.841C431.452 303.732 432.492 304.51 433.612 305.159C430.934 305.823 428.139 305.873 425.438 305.305C420.205 303.926 417.74 306.44 421.278 312.125C422.498 314.15 427.525 317.407 437.626 316.529C441.23 316.335 444.819 315.927 448.374 315.309C458.061 313.235 468.834 311.234 475.458 309.209C477.923 308.24 480.128 306.711 481.9 304.744C493.039 292.044 496.735 282.991 501.615 274.768L501.2 261.348C493.295 261.08 489.074 268.754 484.791 276.001Z" fill="#FFA8A7"/>
<path d="M502.555 261.08C500.262 260.758 497.925 261.068 495.797 261.978C493.668 262.887 491.828 264.361 490.477 266.241C485.06 273.182 475.471 289.848 475.471 289.848C475.471 289.848 478.606 298.205 487.073 299.608L500.676 281.234C500.676 281.234 507.117 268.473 502.555 261.08Z" fill="#455A64"/>
<path d="M531.969 448.399H523.099V464.21H531.969V448.399Z" fill="#FFA8A7"/>
<path d="M501.225 447.557L492.368 447.874L491.916 431.136L501.225 430.819V447.557Z" fill="#FFA8A7"/>
<path d="M533.213 311.527C533.213 320.335 531.92 391.303 531.92 391.303C532.115 393.84 534.36 398.525 533.909 408.273C533.238 421.51 532.347 456.304 532.347 456.304C530.825 457.084 529.145 457.506 527.435 457.54C525.725 457.574 524.03 457.218 522.477 456.5C522.477 456.5 515.279 407.7 513.693 394.633C512.303 383.178 508.74 345.26 508.74 345.26L503.946 390.083C504.962 394.892 505.331 399.816 505.044 404.723C504.629 410.823 501.774 442.396 501.774 442.396C500.242 443.3 498.524 443.844 496.75 443.985C494.977 444.127 493.195 443.863 491.538 443.214C491.538 443.214 486.487 395.634 486.39 390.046C486.268 383.702 489.342 311.454 489.342 311.454L533.213 311.527Z" fill="#37474F"/>
<path d="M523.099 459.647V458.33C522.245 458.708 520.281 466.54 516.755 469.883C513.962 472.543 510.155 475.605 509.179 478.569C508.203 481.534 514.486 483.352 517.109 482.876C520.135 482.315 525.405 480.082 526.723 477.996C528.04 475.91 528.663 472.884 529.736 471.371C530.81 469.859 533.286 468.175 533.86 466.418C534.039 464.774 533.868 463.111 533.36 461.538C532.945 459.903 532.506 458.11 531.969 458.269V459.269C530.718 460.295 529.146 460.848 527.528 460.831C526.235 460.94 523.087 460.672 523.099 459.647Z" fill="#263238"/>
<path d="M492.27 445.019C491.807 445.019 491.428 445.715 490.416 446.862C488.91 448.445 487.149 449.765 485.206 450.766C481.888 452.498 475.446 455.158 472.506 456.536C470.676 457.39 470.762 459.684 472.653 460.989C474.544 462.295 479.094 463.234 484.56 461.965C487.537 461.27 491.416 458.403 493.881 458.561C496.345 458.72 500.92 458.671 502.738 457.341C504.556 456.012 503.824 453.254 503.311 450.875C502.75 448.265 502.091 444.202 501.225 444.385V445.3C500.164 446.984 494.661 447.667 492.319 446.435L492.27 445.019Z" fill="#263238"/>
<path d="M508.74 345.26C504.126 343.75 499.908 341.228 496.394 337.879C496.394 337.879 498.834 342.527 505.861 346.858L504.348 386.886L508.74 345.26Z" fill="#263238"/>
<path d="M528.26 262.373C528.26 262.373 535.58 264.057 535.056 277.282L533.531 298.327V329.925C527.016 337.318 498.151 336.781 488.208 329.339C488.208 329.339 489.33 291.946 490.001 277.55C490.477 267.326 492.831 262.178 502.884 261.056L515.243 261.592L528.26 262.373Z" fill="#D17077"/>
<path d="M518.939 234.899C518.981 236.669 518.673 238.431 518.031 240.081C517.389 241.732 516.427 243.239 515.2 244.516C513.972 245.793 512.505 246.815 510.881 247.522C509.257 248.229 507.51 248.608 505.739 248.636C498.419 248.636 494.124 242.316 492.538 234.899C489.61 221.32 498.443 221.149 505.739 221.149C509.312 221.223 512.71 222.713 515.186 225.291C517.661 227.869 519.011 231.325 518.939 234.899Z" fill="#263238"/>
<path d="M525.674 240.45C525.674 240.45 523.649 250.356 522.831 251.991C522.317 252.975 521.443 253.722 520.391 254.077L520.538 247.111L525.674 240.45Z" fill="#263238"/>
<path d="M523.124 226.261C523.124 226.261 524.576 225.895 526.125 228.311C527.443 230.373 527.748 235.009 525.674 240.511L521.855 240.974L523.124 226.261Z" fill="#263238"/>
<path d="M524.527 228.274L529.212 228.36C529.244 228.057 529.213 227.751 529.121 227.46C529.029 227.17 528.878 226.902 528.678 226.673C528.477 226.444 528.231 226.259 527.956 226.129C527.68 225.999 527.381 225.928 527.077 225.92C526.436 225.929 525.822 226.174 525.351 226.609C524.88 227.043 524.587 227.636 524.527 228.274Z" fill="#263238"/>
<path d="M525.1 227.164L528.565 223.833C528.365 223.598 528.119 223.407 527.842 223.271C527.564 223.136 527.262 223.059 526.954 223.047C526.645 223.034 526.338 223.086 526.05 223.198C525.763 223.31 525.501 223.481 525.283 223.699C524.824 224.149 524.55 224.754 524.516 225.396C524.482 226.038 524.691 226.669 525.1 227.164Z" fill="#263238"/>
<path d="M520.708 240.913C521.477 241.389 522.563 239.864 523.514 238.827C524.466 237.79 527.418 236.839 528.955 240.206C530.493 243.573 527.87 246.904 525.674 248.002C521.733 249.954 520.489 247.111 520.489 247.111L520.159 262.8C514.62 271.34 502.054 271.072 506.581 262.385V257.615C504.719 257.925 502.828 258.023 500.944 257.908C497.87 257.42 495.942 254.895 495.003 251.43C493.514 245.867 492.941 241.377 494.21 230.434C495.601 218.453 508.996 218.319 516.17 223.114C523.343 227.908 520.708 240.913 520.708 240.913Z" fill="#FFA8A7"/>
<path d="M504.019 228.567C507.215 228.25 510.375 227.591 513.584 227.347C514.275 227.263 514.977 227.296 515.658 227.445C518.098 228.116 517.805 230.97 518.195 232.959C518.866 236.399 519.415 242.219 520.708 242.243C521.099 242.243 522.563 239.718 523.514 238.815C524.037 238.037 524.333 237.129 524.368 236.192C524.612 234.777 524.734 233.325 524.844 231.885C524.942 230.665 525.064 229.445 525.064 228.225C525.119 226.847 525.009 225.466 524.734 224.114C524.428 222.964 523.842 221.907 523.026 221.04L522.782 220.771C521.174 219.09 519.223 217.775 517.061 216.916C513.95 215.751 510.687 215.04 507.374 214.805C504.065 214.571 500.77 214.164 497.504 213.585C497.317 213.531 497.118 213.531 496.931 213.585C496.798 213.659 496.686 213.764 496.605 213.892C496.524 214.02 496.477 214.166 496.467 214.317C496.333 215.076 496.417 215.856 496.708 216.569C497 217.281 497.487 217.896 498.114 218.343C495.906 218.514 493.368 217.367 491.245 216.782C491.074 216.709 490.889 216.671 490.702 216.671C490.516 216.671 490.331 216.709 490.16 216.782C489.947 216.931 489.795 217.152 489.733 217.404C489.578 217.977 489.557 218.578 489.672 219.161C489.866 220.927 490.522 222.61 491.575 224.041C493.219 226.182 495.542 227.7 498.163 228.347C500.092 228.719 502.067 228.793 504.019 228.567Z" fill="#263238"/>
<path d="M506.593 257.615C506.593 257.615 513.449 256.176 515.84 254.846C517.265 254.067 518.421 252.876 519.159 251.43C518.799 252.883 518.156 254.251 517.268 255.456C515.523 257.798 506.593 259.506 506.593 259.506V257.615Z" fill="#F28F8F"/>
<path d="M508.24 239.12C508.227 239.497 508.363 239.863 508.619 240.14C508.875 240.416 509.23 240.58 509.606 240.596C509.905 240.621 510.205 240.554 510.465 240.406C510.726 240.258 510.935 240.034 511.067 239.764C511.198 239.495 511.245 239.192 511.201 238.895C511.157 238.598 511.024 238.322 510.821 238.102C510.617 237.882 510.351 237.728 510.059 237.662C509.767 237.595 509.461 237.618 509.182 237.728C508.903 237.838 508.664 238.03 508.496 238.278C508.328 238.527 508.238 238.82 508.24 239.12Z" fill="#263238"/>
<path d="M510.436 233.203L513.376 234.899C513.59 234.481 513.639 233.997 513.512 233.545C513.385 233.093 513.093 232.705 512.693 232.459C512.498 232.349 512.282 232.282 512.06 232.26C511.837 232.239 511.613 232.264 511.401 232.334C511.188 232.404 510.993 232.517 510.827 232.667C510.661 232.816 510.528 232.999 510.436 233.203Z" fill="#263238"/>
<path d="M507.203 249.014L504.067 250.234C504.13 250.449 504.237 250.649 504.381 250.821C504.524 250.993 504.701 251.134 504.902 251.235C505.102 251.335 505.321 251.394 505.544 251.406C505.768 251.419 505.992 251.385 506.202 251.308C506.629 251.124 506.97 250.785 507.156 250.359C507.342 249.933 507.358 249.452 507.203 249.014Z" fill="#F28F8F"/>
<path d="M495.625 234.46L498.309 232.312C498.189 232.125 498.03 231.965 497.844 231.843C497.658 231.721 497.448 231.639 497.228 231.603C497.008 231.568 496.784 231.579 496.568 231.636C496.353 231.693 496.152 231.794 495.979 231.934C495.62 232.238 495.386 232.664 495.321 233.129C495.255 233.595 495.364 234.069 495.625 234.46Z" fill="#263238"/>
<path d="M496.808 238.717C496.83 238.984 496.928 239.239 497.092 239.451C497.256 239.663 497.478 239.822 497.731 239.91C497.984 239.998 498.257 240.01 498.517 239.945C498.777 239.88 499.012 239.741 499.194 239.544C499.376 239.348 499.497 239.103 499.542 238.839C499.587 238.575 499.554 238.303 499.447 238.058C499.34 237.812 499.164 237.603 498.94 237.456C498.717 237.309 498.455 237.23 498.187 237.229C497.999 237.235 497.813 237.279 497.641 237.357C497.47 237.436 497.316 237.547 497.187 237.686C497.059 237.824 496.96 237.987 496.895 238.164C496.83 238.341 496.8 238.529 496.808 238.717Z" fill="#263238"/>
<path d="M504.165 237.571L504.006 246.245L499.078 245.122L504.165 237.571Z" fill="#F28F8F"/>
<path d="M387.118 310.222L394.768 305.805L397.793 302.133L390.156 306.549L387.118 310.222Z" fill="#D17077"/>
<path opacity="0.4" d="M387.118 310.222L394.768 305.805L397.793 302.133L390.156 306.549L387.118 310.222Z" fill="black"/>
<path d="M407.919 322.226L415.569 317.81L421.949 312.161L414.312 316.566L407.919 322.226Z" fill="#D17077"/>
<path opacity="0.4" d="M407.919 322.226L415.569 317.81L421.949 312.161L414.312 316.566L407.919 322.226Z" fill="black"/>
<path d="M472.897 337.464C474.705 339.889 475.8 342.771 476.056 345.785C474.256 343.356 473.162 340.476 472.897 337.464ZM490.672 337.696C488.098 320.189 478.692 302.877 467.492 296.399C462.112 293.288 457.134 293.178 453.145 295.508L445.947 299.656L445.544 299.9C445.224 300.077 444.914 300.272 444.617 300.486C444.026 300.893 443.47 301.35 442.958 301.852L442.714 302.084C442.494 302.304 442.262 302.56 442.055 302.804C441.848 303.048 441.53 303.426 441.286 303.756C440.768 304.437 440.3 305.155 439.883 305.903C439.664 306.281 439.456 306.684 439.261 307.123L376.394 270.84L368.757 275.244V280.124L369.404 280.49L370.014 280.844V281.82L368.794 282.54V285.37L378.029 304.89L387.155 310.173L390.193 306.513L398.245 311.332L402.869 319.25L407.968 322.19L414.349 316.529L422.181 321.055L424.816 331.925L437.98 339.538C438.631 342.305 439.446 345.03 440.42 347.7C440.506 347.968 440.615 348.249 440.725 348.554C445.093 360.022 452.035 369.843 459.867 374.369C460.806 374.926 461.789 375.403 462.807 375.797C463.345 376.011 463.895 376.194 464.454 376.346C464.942 376.476 465.43 376.586 465.918 376.675C467.459 376.956 469.038 376.956 470.579 376.675L471.213 376.516C471.516 376.455 471.814 376.37 472.104 376.26L472.787 375.992C473.029 375.905 473.261 375.794 473.482 375.662C473.708 375.565 473.928 375.455 474.141 375.333L474.458 375.138C474.516 375.119 474.569 375.09 474.617 375.052C476.361 374.052 480.656 371.563 481.827 370.904C487.634 367.537 491.392 359.022 491.392 346.98C491.382 343.872 491.141 340.769 490.672 337.696Z" fill="#D17077"/>
<path d="M470.664 352.238C467.638 350.494 465.198 345.321 465.198 340.685C465.198 336.049 467.638 333.694 470.664 335.427C473.69 337.159 476.117 342.344 476.117 346.992C476.117 351.641 473.677 353.983 470.664 352.238ZM483.023 342.1C480.461 324.605 471.054 307.281 459.843 300.815C454.645 297.814 449.839 297.595 445.935 299.656L445.532 299.9C445.211 300.077 444.902 300.272 444.605 300.486C444.013 300.893 443.458 301.35 442.946 301.852L442.702 302.084C442.482 302.304 442.25 302.56 442.043 302.804C441.835 303.048 441.518 303.426 441.274 303.756C440.756 304.437 440.287 305.155 439.871 305.903C439.652 306.281 439.444 306.684 439.249 307.123C438.111 309.481 437.291 311.979 436.809 314.553L368.745 275.244V280.124L369.392 280.49L370.002 280.844V281.82L368.782 282.54V285.37L378.017 304.89L387.143 310.173L390.181 306.513L398.233 311.332L402.856 319.25L407.956 322.19L414.337 316.529L422.169 321.055L424.804 331.925L437.98 339.538C438.631 342.305 439.446 345.03 440.42 347.7C440.506 347.968 440.615 348.249 440.725 348.554C445.093 360.022 452.035 369.843 459.867 374.369C460.806 374.926 461.789 375.403 462.807 375.797C463.345 376.011 463.895 376.194 464.454 376.346C464.942 376.476 465.43 376.586 465.918 376.675C467.459 376.956 469.038 376.956 470.579 376.675L471.213 376.516C471.516 376.455 471.814 376.37 472.104 376.26L472.787 375.992C473.029 375.905 473.261 375.794 473.482 375.662C473.708 375.565 473.928 375.455 474.141 375.333L474.458 375.138C474.516 375.119 474.569 375.09 474.617 375.052C480.18 371.539 483.755 363.145 483.755 351.397C483.734 348.284 483.489 345.177 483.023 342.1Z" fill="#D17077"/>
<path opacity="0.4" d="M476.117 346.98C476.117 351.628 473.677 353.983 470.664 352.238C467.65 350.494 465.198 345.333 465.198 340.685C465.198 336.037 467.638 333.682 470.664 335.427C471.535 335.957 472.294 336.654 472.896 337.476C473.159 340.489 474.253 343.37 476.056 345.797C476.101 346.19 476.121 346.585 476.117 346.98Z" fill="black"/>
<path opacity="0.4" d="M491.367 346.968C491.367 359.009 487.61 367.525 481.803 370.892C480.583 371.551 476.337 374.04 474.592 375.04C480.156 371.527 483.73 363.133 483.73 351.384C483.717 348.277 483.481 345.174 483.023 342.1C480.461 324.605 471.054 307.281 459.843 300.815C454.645 297.814 449.839 297.595 445.935 299.656L453.133 295.508C457.122 293.178 462.1 293.288 467.48 296.399C478.692 302.877 488.098 320.189 490.66 337.696C491.124 340.765 491.361 343.864 491.367 346.968Z" fill="white"/>
<path d="M483.73 351.36C483.73 363.109 480.155 371.502 474.592 375.016C476.337 374.015 480.631 371.527 481.802 370.868C487.61 367.501 491.367 358.985 491.367 346.944C491.367 346.504 491.367 346.053 491.367 345.602L483.73 350.018C483.718 350.494 483.73 350.933 483.73 351.36Z" fill="#D17077"/>
<path opacity="0.1" d="M483.73 351.36C483.73 363.109 480.155 371.502 474.592 375.016C476.337 374.015 480.631 371.527 481.802 370.868C487.61 367.501 491.367 358.985 491.367 346.944C491.367 346.504 491.367 346.053 491.367 345.602L483.73 350.018C483.718 350.494 483.73 350.933 483.73 351.36Z" fill="black"/>
<path opacity="0.15" d="M437.102 319.542V322.019L368.757 282.564L370.014 281.832V280.807L437.102 319.542Z" fill="black"/>
<path opacity="0.15" d="M437.102 320.567V322.019L368.757 282.564L370.014 281.832V281.82L437.102 320.567Z" fill="black"/>
<path opacity="0.15" d="M466.821 370.88C464.231 370.813 461.705 370.059 459.501 368.696C448.362 362.267 439.298 343.137 439.298 326.057C439.298 316.09 442.311 308.648 447.569 305.61C451.229 303.487 455.56 303.756 460.111 306.379C471.237 312.808 480.302 331.999 480.302 349.079C480.302 359.034 477.288 366.488 472.03 369.514C470.444 370.419 468.647 370.891 466.821 370.88ZM452.852 305.427C451.226 305.418 449.627 305.839 448.216 306.647C443.421 309.416 440.554 316.675 440.554 326.045C440.554 342.735 449.338 361.425 460.147 367.623C464.283 370.063 468.199 370.282 471.457 368.403C476.251 365.634 479.118 358.387 479.118 349.018C479.118 332.316 470.334 313.638 459.537 307.428C457.52 306.2 455.213 305.527 452.852 305.476V305.427Z" fill="black"/>
<path opacity="0.4" d="M439.2 307.098C438.063 309.457 437.242 311.955 436.76 314.528L368.696 275.22L376.334 270.816L439.2 307.098Z" fill="white"/>
<path d="M527.662 310.917C531.225 304.17 535.3 289.018 537.325 281.369C540.204 270.511 535.544 263.679 530.249 263.398C526.943 263.91 516.048 303.524 516.048 303.524C514.828 304.488 498.273 312.893 492.953 315.004C492.002 315.364 490.952 315.364 490.001 315.004C487.451 314.077 485.707 314.248 483.206 314.004C481.241 313.808 480.253 313.113 479.997 313.528C479.764 314.043 479.734 314.626 479.913 315.162C480.092 315.698 480.466 316.147 480.961 316.419C482.038 317.046 483.184 317.546 484.377 317.908C482.239 318.556 480.01 318.857 477.777 318.798C472.653 318.688 470.81 320.909 474.788 326.118C477.228 329.363 481.266 330.388 490.282 327.277C492.868 326.374 496.382 324.63 499.663 323.446C506.422 321.006 508.203 320.714 513.352 318.969C520.855 316.431 526.076 313.918 527.662 310.917Z" fill="#FFA8A7"/>
<path d="M528.26 262.373C531.371 262.8 534.36 263.496 536.202 266.033C538.044 268.571 539.521 272.133 537.715 281.832C536.332 288.653 534.482 295.371 532.176 301.938C532.176 301.938 524.929 305.037 517.231 297.18L522.526 276.708C522.526 276.708 523.38 263.398 528.26 262.373Z" fill="#455A64"/>
</svg>
