<svg width="90" height="68" viewBox="0 0 90 68" fill="none" xmlns="http://www.w3.org/2000/svg">
<path fill-rule="evenodd" clip-rule="evenodd" d="M14.8166 0.607239H0.1521V63.5089H1.98412V63.606H2.8088L7.11454 63.6062C14.2859 63.6066 21.4574 63.6071 28.6296 63.596C29.0525 63.596 29.2816 63.7103 29.4864 64.0952C30.0233 65.1013 30.6099 66.083 31.2066 67.0558C31.3051 67.2166 31.5586 67.3775 31.7424 67.3786C35.1883 67.3974 38.6354 67.3974 42.0813 67.3786C42.2629 67.3786 42.5119 67.2144 42.6127 67.0536C43.0271 66.3918 43.4155 65.714 43.804 65.0359C43.8824 64.899 43.9609 64.7622 44.0395 64.6254C44.2689 64.2278 44.4946 63.8278 44.7305 63.4095L44.731 63.4088C44.857 63.1855 44.9859 62.957 45.1199 62.7208H44.4092C43.5939 62.7208 42.7786 62.7206 41.9633 62.7204C39.5164 62.7197 37.0695 62.7191 34.6227 62.7241C34.3116 62.7241 34.0747 62.6975 33.8954 62.3747C33.115 60.977 32.3135 59.5893 31.4977 58.2127C31.3228 57.9166 31.3416 57.7047 31.511 57.4174C32.2992 56.0863 33.0785 54.7496 33.8245 53.3952C34.0238 53.0336 34.2485 52.9182 34.6459 52.9193C37.1108 52.9303 39.5757 52.9291 42.0405 52.9279C42.819 52.9275 43.5975 52.9271 44.376 52.9271H45.0413C45.0316 52.8803 45.0256 52.8427 45.0207 52.8117C45.012 52.7576 45.0066 52.7235 44.9904 52.6953L44.6316 52.0678C43.9471 50.8701 43.2627 49.6726 42.5606 48.4856C42.4831 48.3536 42.2418 48.2505 42.0769 48.2505C38.6486 48.2371 35.2204 48.2338 31.7933 48.2549C31.5918 48.256 31.3118 48.4268 31.2044 48.6021V48.601C30.9038 49.0932 30.6166 49.5938 30.3293 50.0943L30.3292 50.0944C30.021 50.6316 29.7127 51.1687 29.3879 51.6958C29.2716 51.8844 28.7481 52.0652 28.7481 52.0652L14.8166 52.0761V0.607239ZM27.0777 59.9521H14.8166V55.6698C18.824 55.6671 22.8309 55.6698 26.8386 55.6725V55.6703C26.8723 55.6703 26.9055 55.6764 26.9621 55.6867C26.9928 55.6923 27.0304 55.6991 27.0788 55.7069C26.9798 55.8803 26.8832 56.0515 26.7877 56.2209L26.7876 56.2209C26.5531 56.6366 26.3251 57.0409 26.0836 57.4374C25.9253 57.6969 25.8877 57.8977 26.0681 58.1806C26.3182 58.5706 26.5412 58.9777 26.7758 59.4059L26.7759 59.4061C26.8736 59.5843 26.9732 59.7662 27.0777 59.9521ZM68.0836 40.3741C66.9373 40.3898 65.7762 40.4057 64.5843 40.5237H64.586C69.1964 44.7179 73.8064 48.9127 78.4486 53.1367C82.2212 56.5696 86.0151 60.0218 89.8479 63.5089H88.7753C87.7333 63.5089 86.6913 63.509 85.6494 63.5091C79.3986 63.5097 73.1488 63.5103 66.8977 63.4889C66.5329 63.4872 66.0749 63.3123 65.8184 63.0592C60.5583 57.871 55.308 52.6722 50.0579 47.4735C47.5301 44.9705 45.0023 42.4675 42.4735 39.9657C39.8706 37.39 37.2619 34.8208 34.6537 32.2518C33.2749 30.8939 31.8963 29.5361 30.5187 28.1775C30.4712 28.131 30.4303 28.0772 30.3614 27.9862C30.3216 27.9337 30.2724 27.8689 30.2073 27.7861H31.1932C34.3011 27.7861 37.409 27.7857 40.5169 27.7854C48.8059 27.7844 57.0948 27.7834 65.3837 27.7894C67.9985 27.7911 70.072 26.7668 71.4527 24.5451C72.7368 22.4799 72.7951 20.2782 71.6609 18.138C70.4784 15.9063 68.5498 14.6622 66.015 14.6572C55.1683 14.6322 44.3205 14.6361 33.4734 14.6401C31.3043 14.6408 29.1353 14.6416 26.9663 14.6422V0.607239C40.9096 0.607239 54.8546 0.608904 68.798 0.620563C73.4596 0.625559 77.8198 1.75475 81.5455 4.65601C87.413 9.22274 90.0927 15.2268 89.3532 22.6831C88.5188 31.0971 81.3623 39.7042 70.4051 40.3105C69.6349 40.3529 68.8627 40.3635 68.0836 40.3741Z" fill="white"/>
</svg>
